M48
; DRILL file {KiCad 5.1.5+dfsg1-2build2} date Mon 09 Nov 2020 03:48:57 PM MSK
; FORMAT={-:-/ absolute / metric / decimal}
; #@! TF.CreationDate,2020-11-09T15:48:57+03:00
; #@! TF.GenerationSoftware,Kicad,Pcbnew,5.1.5+dfsg1-2build2
; #@! TF.FileFunction,Plated,1,2,PTH
FMAT,2
METRIC
T1C0.200
T2C0.400
T3C1.000
%
G90
G05
T1
X166.32Y-85.639
X166.32Y-86.689
X166.32Y-87.739
X166.32Y-88.789
X167.37Y-85.639
X167.37Y-86.689
X167.37Y-87.739
X167.37Y-88.789
X168.42Y-85.639
X168.42Y-86.689
X168.42Y-87.739
X168.42Y-88.789
X169.47Y-85.639
X169.47Y-86.689
X169.47Y-87.739
X169.47Y-88.789
T2
X160.782Y-83.82
X160.782Y-85.852
X162.052Y-86.614
X163.091Y-89.72
X164.238Y-93.39
X170.325Y-82.816
X170.891Y-91.127
X171.782Y-89.825
X173.172Y-79.769
X173.716Y-87.12
X174.752Y-77.978
X190.055Y-99.191
X194.056Y-71.374
T3
X191.262Y-85.344
X191.262Y-87.884
X132.588Y-67.564
X132.588Y-72.644
X135.128Y-67.564
X135.128Y-72.644
X137.668Y-67.564
X137.668Y-72.644
X140.208Y-67.564
X140.208Y-72.644
X142.748Y-67.564
X142.748Y-72.644
X145.288Y-67.564
X145.288Y-72.644
X147.828Y-67.564
X147.828Y-72.644
X150.368Y-67.564
X150.368Y-72.644
X152.908Y-67.564
X152.908Y-72.644
X155.448Y-67.564
X155.448Y-72.644
X132.08Y-102.362
X132.08Y-107.442
X134.62Y-102.362
X134.62Y-107.442
X137.16Y-102.362
X137.16Y-107.442
X139.7Y-102.362
X139.7Y-107.442
X142.24Y-102.362
X142.24Y-107.442
X144.78Y-102.362
X144.78Y-107.442
X147.32Y-102.362
X147.32Y-107.442
X149.86Y-102.362
X149.86Y-107.442
X152.4Y-102.362
X152.4Y-107.442
X154.94Y-102.362
X154.94Y-107.442
X191.262Y-91.948
X191.262Y-94.488
X178.054Y-102.108
X178.054Y-107.188
X180.594Y-102.108
X180.594Y-107.188
X183.134Y-102.108
X183.134Y-107.188
X185.674Y-102.108
X185.674Y-107.188
X188.214Y-102.108
X188.214Y-107.188
X190.754Y-102.108
X190.754Y-107.188
X193.294Y-102.108
X193.294Y-107.188
X195.834Y-102.108
X195.834Y-107.188
X198.374Y-102.108
X198.374Y-107.188
X200.914Y-102.108
X200.914Y-107.188
X200.406Y-69.85
X200.406Y-72.39
T0
M30
